<svg xmlns="http://www.w3.org/2000/svg" xmlns:xlink="http://www.w3.org/1999/xlink" width="600" zoomAndPan="magnify" viewBox="0 0 450 149.999998" height="200" preserveAspectRatio="xMidYMid meet" version="1.0"><defs><g/><clipPath id="45fd6c86d9"><path d="M 418 123 L 442 123 L 442 146 L 418 146 Z M 418 123 " clip-rule="nonzero"/></clipPath><clipPath id="57f2394e0a"><path d="M 420.980469 121.558594 L 443.253906 143.832031 L 439.539062 147.546875 L 417.265625 125.273438 Z M 420.980469 121.558594 " clip-rule="nonzero"/></clipPath><clipPath id="fd90bce684"><path d="M 420.980469 121.558594 L 443.253906 143.832031 L 439.539062 147.546875 L 417.265625 125.273438 Z M 420.980469 121.558594 " clip-rule="nonzero"/></clipPath><clipPath id="691e5e4c60"><path d="M 6 73.457031 L 430 73.457031 L 430 77.207031 L 6 77.207031 Z M 6 73.457031 " clip-rule="nonzero"/></clipPath><clipPath id="255f5f314a"><path d="M 388.992188 91.984375 L 429.492188 91.984375 L 429.492188 132.484375 L 388.992188 132.484375 Z M 388.992188 91.984375 " clip-rule="nonzero"/></clipPath></defs><g fill="#ffffff" fill-opacity="1"><g transform="translate(2.513059, 62.39446)"><g><path d="M 22.78125 0.765625 C 18.789062 0.765625 15.207031 -0.078125 12.03125 -1.765625 C 8.863281 -3.453125 6.375 -5.800781 4.5625 -8.8125 C 2.75 -11.820312 1.84375 -15.226562 1.84375 -19.03125 C 1.84375 -22.832031 2.75 -26.238281 4.5625 -29.25 C 6.375 -32.257812 8.863281 -34.609375 12.03125 -36.296875 C 15.207031 -37.984375 18.789062 -38.828125 22.78125 -38.828125 C 26.257812 -38.828125 29.394531 -38.207031 32.1875 -36.96875 C 34.976562 -35.738281 37.300781 -33.960938 39.15625 -31.640625 L 32.296875 -25.453125 C 29.828125 -28.421875 26.835938 -29.90625 23.328125 -29.90625 C 21.265625 -29.90625 19.425781 -29.453125 17.8125 -28.546875 C 16.195312 -27.640625 14.941406 -26.359375 14.046875 -24.703125 C 13.160156 -23.054688 12.71875 -21.164062 12.71875 -19.03125 C 12.71875 -16.894531 13.160156 -15 14.046875 -13.34375 C 14.941406 -11.695312 16.195312 -10.421875 17.8125 -9.515625 C 19.425781 -8.609375 21.265625 -8.15625 23.328125 -8.15625 C 26.835938 -8.15625 29.828125 -9.640625 32.296875 -12.609375 L 39.15625 -6.421875 C 37.300781 -4.097656 34.976562 -2.316406 32.1875 -1.078125 C 29.394531 0.148438 26.257812 0.765625 22.78125 0.765625 Z M 22.78125 0.765625 "/></g></g></g><g fill="#ffffff" fill-opacity="1"><g transform="translate(41.980823, 62.39446)"><g><path d="M 29.3125 -7.390625 L 13.21875 -7.390625 L 10.21875 0 L -0.765625 0 L 16.046875 -38.0625 L 26.640625 -38.0625 L 43.5 0 L 32.296875 0 Z M 26.15625 -15.328125 L 21.265625 -27.515625 L 16.359375 -15.328125 Z M 26.15625 -15.328125 "/></g></g></g><g fill="#ffffff" fill-opacity="1"><g transform="translate(84.710427, 62.39446)"><g><path d="M 40.015625 -38.0625 L 40.015625 0 L 31.15625 0 L 14.359375 -20.28125 L 14.359375 0 L 3.8125 0 L 3.8125 -38.0625 L 12.671875 -38.0625 L 29.46875 -17.78125 L 29.46875 -38.0625 Z M 40.015625 -38.0625 "/></g></g></g><g fill="#ffffff" fill-opacity="1"><g transform="translate(128.5273, 62.39446)"><g><path d="M 11.90625 -29.53125 L 0.21875 -29.53125 L 0.21875 -38.0625 L 34.3125 -38.0625 L 34.3125 -29.53125 L 22.671875 -29.53125 L 22.671875 0 L 11.90625 0 Z M 11.90625 -29.53125 "/></g></g></g><g fill="#ffffff" fill-opacity="1"><g transform="translate(163.048035, 62.39446)"><g><path d="M 3.8125 -38.0625 L 14.578125 -38.0625 L 14.578125 0 L 3.8125 0 Z M 3.8125 -38.0625 "/></g></g></g><g fill="#ffffff" fill-opacity="1"><g transform="translate(181.477222, 62.39446)"><g><path d="M 3.8125 -38.0625 L 14.578125 -38.0625 L 14.578125 -8.53125 L 32.734375 -8.53125 L 32.734375 0 L 3.8125 0 Z M 3.8125 -38.0625 "/></g></g></g><g fill="#ffffff" fill-opacity="1"><g transform="translate(214.638879, 62.39446)"><g><path d="M 3.8125 -38.0625 L 14.578125 -38.0625 L 14.578125 -8.53125 L 32.734375 -8.53125 L 32.734375 0 L 3.8125 0 Z M 3.8125 -38.0625 "/></g></g></g><g fill="#ffffff" fill-opacity="1"><g transform="translate(248.23548, 62.39446)"><g><path d="M 29.3125 -7.390625 L 13.21875 -7.390625 L 10.21875 0 L -0.765625 0 L 16.046875 -38.0625 L 26.640625 -38.0625 L 43.5 0 L 32.296875 0 Z M 26.15625 -15.328125 L 21.265625 -27.515625 L 16.359375 -15.328125 Z M 26.15625 -15.328125 "/></g></g></g><g fill="#ffffff" fill-opacity="1"><g transform="translate(289.062207, 62.39446)"><g><path d="M 11.90625 -29.53125 L 0.21875 -29.53125 L 0.21875 -38.0625 L 34.3125 -38.0625 L 34.3125 -29.53125 L 22.671875 -29.53125 L 22.671875 0 L 11.90625 0 Z M 11.90625 -29.53125 "/></g></g></g><g fill="#ffffff" fill-opacity="1"><g transform="translate(323.582941, 62.39446)"><g><path d="M 3.8125 -38.0625 L 14.578125 -38.0625 L 14.578125 0 L 3.8125 0 Z M 3.8125 -38.0625 "/></g></g></g><g fill="#ffffff" fill-opacity="1"><g transform="translate(342.01214, 62.39446)"><g><path d="M 23 0.765625 C 18.976562 0.765625 15.363281 -0.0820312 12.15625 -1.78125 C 8.945312 -3.488281 6.425781 -5.847656 4.59375 -8.859375 C 2.757812 -11.867188 1.84375 -15.257812 1.84375 -19.03125 C 1.84375 -22.800781 2.757812 -26.191406 4.59375 -29.203125 C 6.425781 -32.210938 8.945312 -34.566406 12.15625 -36.265625 C 15.363281 -37.972656 18.976562 -38.828125 23 -38.828125 C 27.019531 -38.828125 30.632812 -37.972656 33.84375 -36.265625 C 37.050781 -34.566406 39.570312 -32.210938 41.40625 -29.203125 C 43.238281 -26.191406 44.15625 -22.800781 44.15625 -19.03125 C 44.15625 -15.257812 43.238281 -11.867188 41.40625 -8.859375 C 39.570312 -5.847656 37.050781 -3.488281 33.84375 -1.78125 C 30.632812 -0.0820312 27.019531 0.765625 23 0.765625 Z M 23 -8.15625 C 24.914062 -8.15625 26.65625 -8.609375 28.21875 -9.515625 C 29.78125 -10.421875 31.015625 -11.695312 31.921875 -13.34375 C 32.828125 -15 33.28125 -16.894531 33.28125 -19.03125 C 33.28125 -21.164062 32.828125 -23.054688 31.921875 -24.703125 C 31.015625 -26.359375 29.78125 -27.640625 28.21875 -28.546875 C 26.65625 -29.453125 24.914062 -29.90625 23 -29.90625 C 21.082031 -29.90625 19.34375 -29.453125 17.78125 -28.546875 C 16.21875 -27.640625 14.984375 -26.359375 14.078125 -24.703125 C 13.171875 -23.054688 12.71875 -21.164062 12.71875 -19.03125 C 12.71875 -16.894531 13.171875 -15 14.078125 -13.34375 C 14.984375 -11.695312 16.21875 -10.421875 17.78125 -9.515625 C 19.34375 -8.609375 21.082031 -8.15625 23 -8.15625 Z M 23 -8.15625 "/></g></g></g><g fill="#ffffff" fill-opacity="1"><g transform="translate(388.003561, 62.39446)"><g><path d="M 40.015625 -38.0625 L 40.015625 0 L 31.15625 0 L 14.359375 -20.28125 L 14.359375 0 L 3.8125 0 L 3.8125 -38.0625 L 12.671875 -38.0625 L 29.46875 -17.78125 L 29.46875 -38.0625 Z M 40.015625 -38.0625 "/></g></g></g><g fill="#ffffff" fill-opacity="1"><g transform="translate(431.829444, 62.39446)"><g/></g></g><g fill="#ffffff" fill-opacity="1"><g transform="translate(2.513059, 129.894456)"><g><path d="M 16.6875 0.328125 C 13.863281 0.328125 11.15625 -0.125 8.5625 -1.03125 C 5.96875 -1.9375 3.96875 -3.132812 2.5625 -4.625 L 4.125 -7.71875 C 5.507812 -6.34375 7.34375 -5.226562 9.625 -4.375 C 11.90625 -3.519531 14.257812 -3.09375 16.6875 -3.09375 C 20.09375 -3.09375 22.648438 -3.71875 24.359375 -4.96875 C 26.066406 -6.21875 26.921875 -7.84375 26.921875 -9.84375 C 26.921875 -11.363281 26.457031 -12.578125 25.53125 -13.484375 C 24.601562 -14.390625 23.46875 -15.085938 22.125 -15.578125 C 20.789062 -16.066406 18.925781 -16.601562 16.53125 -17.1875 C 13.664062 -17.90625 11.378906 -18.597656 9.671875 -19.265625 C 7.972656 -19.941406 6.515625 -20.96875 5.296875 -22.34375 C 4.085938 -23.726562 3.484375 -25.597656 3.484375 -27.953125 C 3.484375 -29.867188 3.988281 -31.613281 5 -33.1875 C 6.019531 -34.769531 7.578125 -36.03125 9.671875 -36.96875 C 11.773438 -37.914062 14.390625 -38.390625 17.515625 -38.390625 C 19.679688 -38.390625 21.804688 -38.085938 23.890625 -37.484375 C 25.984375 -36.890625 27.789062 -36.066406 29.3125 -35.015625 L 27.953125 -31.8125 C 26.359375 -32.863281 24.65625 -33.648438 22.84375 -34.171875 C 21.03125 -34.703125 19.253906 -34.96875 17.515625 -34.96875 C 14.171875 -34.96875 11.65625 -34.320312 9.96875 -33.03125 C 8.289062 -31.75 7.453125 -30.09375 7.453125 -28.0625 C 7.453125 -26.539062 7.910156 -25.316406 8.828125 -24.390625 C 9.753906 -23.460938 10.914062 -22.753906 12.3125 -22.265625 C 13.707031 -21.773438 15.582031 -21.238281 17.9375 -20.65625 C 20.726562 -19.96875 22.984375 -19.289062 24.703125 -18.625 C 26.429688 -17.957031 27.894531 -16.941406 29.09375 -15.578125 C 30.289062 -14.222656 30.890625 -12.382812 30.890625 -10.0625 C 30.890625 -8.132812 30.367188 -6.382812 29.328125 -4.8125 C 28.296875 -3.238281 26.710938 -1.988281 24.578125 -1.0625 C 22.441406 -0.132812 19.8125 0.328125 16.6875 0.328125 Z M 16.6875 0.328125 "/></g></g></g><g fill="#ffffff" fill-opacity="1"><g transform="translate(78.902185, 129.894456)"><g><path d="M 13.59375 -34.578125 L 0.21875 -34.578125 L 0.21875 -38.0625 L 31 -38.0625 L 31 -34.578125 L 17.625 -34.578125 L 17.625 0 L 13.59375 0 Z M 13.59375 -34.578125 "/></g></g></g><g fill="#ffffff" fill-opacity="1"><g transform="translate(152.844941, 129.894456)"><g><path d="M 21.53125 0.328125 C 16.601562 0.328125 12.757812 -1.082031 10 -3.90625 C 7.25 -6.738281 5.875 -10.859375 5.875 -16.265625 L 5.875 -38.0625 L 9.890625 -38.0625 L 9.890625 -16.421875 C 9.890625 -11.992188 10.882812 -8.691406 12.875 -6.515625 C 14.875 -4.347656 17.757812 -3.265625 21.53125 -3.265625 C 25.332031 -3.265625 28.226562 -4.347656 30.21875 -6.515625 C 32.21875 -8.691406 33.21875 -11.992188 33.21875 -16.421875 L 33.21875 -38.0625 L 37.140625 -38.0625 L 37.140625 -16.265625 C 37.140625 -10.859375 35.769531 -6.738281 33.03125 -3.90625 C 30.289062 -1.082031 26.457031 0.328125 21.53125 0.328125 Z M 21.53125 0.328125 "/></g></g></g><g fill="#ffffff" fill-opacity="1"><g transform="translate(239.400069, 129.894456)"><g><path d="M 6.203125 -38.0625 L 21.703125 -38.0625 C 25.722656 -38.0625 29.269531 -37.253906 32.34375 -35.640625 C 35.425781 -34.023438 37.820312 -31.773438 39.53125 -28.890625 C 41.238281 -26.015625 42.09375 -22.726562 42.09375 -19.03125 C 42.09375 -15.332031 41.238281 -12.039062 39.53125 -9.15625 C 37.820312 -6.28125 35.425781 -4.035156 32.34375 -2.421875 C 29.269531 -0.804688 25.722656 0 21.703125 0 L 6.203125 0 Z M 21.484375 -3.484375 C 24.816406 -3.484375 27.734375 -4.144531 30.234375 -5.46875 C 32.734375 -6.789062 34.671875 -8.617188 36.046875 -10.953125 C 37.421875 -13.296875 38.109375 -15.988281 38.109375 -19.03125 C 38.109375 -22.070312 37.421875 -24.757812 36.046875 -27.09375 C 34.671875 -29.4375 32.734375 -31.269531 30.234375 -32.59375 C 27.734375 -33.914062 24.816406 -34.578125 21.484375 -34.578125 L 10.21875 -34.578125 L 10.21875 -3.484375 Z M 21.484375 -3.484375 "/></g></g></g><g fill="#ffffff" fill-opacity="1"><g transform="translate(327.803522, 129.894456)"><g><path d="M 6.203125 -38.0625 L 10.21875 -38.0625 L 10.21875 0 L 6.203125 0 Z M 6.203125 -38.0625 "/></g></g></g><g clip-path="url(#45fd6c86d9)"><g clip-path="url(#57f2394e0a)"><g clip-path="url(#fd90bce684)"><path fill="#ffbd59" d="M 423.410156 123.992188 C 423.167969 123.742188 422.886719 123.550781 422.566406 123.414062 C 422.25 123.277344 421.914062 123.207031 421.566406 123.203125 C 421.21875 123.203125 420.886719 123.265625 420.5625 123.398438 C 420.242188 123.53125 419.960938 123.71875 419.714844 123.964844 C 419.46875 124.210938 419.277344 124.496094 419.148438 124.816406 C 419.015625 125.136719 418.949219 125.472656 418.953125 125.820312 C 418.957031 126.167969 419.023438 126.5 419.160156 126.820312 C 419.296875 127.140625 419.492188 127.417969 419.738281 127.660156 L 437.175781 145.097656 C 437.417969 145.347656 437.699219 145.539062 438.019531 145.675781 C 438.339844 145.8125 438.671875 145.882812 439.019531 145.886719 C 439.367188 145.886719 439.703125 145.824219 440.023438 145.691406 C 440.34375 145.558594 440.628906 145.371094 440.875 145.125 C 441.117188 144.878906 441.308594 144.59375 441.441406 144.273438 C 441.570312 143.953125 441.636719 143.617188 441.632812 143.269531 C 441.632812 142.921875 441.5625 142.589844 441.425781 142.269531 C 441.289062 141.949219 441.097656 141.671875 440.847656 141.429688 Z M 423.410156 123.992188 " fill-opacity="1" fill-rule="nonzero"/></g></g></g><g clip-path="url(#691e5e4c60)"><path fill="#ffffff" d="M 8.285156 73.445312 L 426.871094 73.445312 L 429.398438 75.292969 L 429.398438 75.667969 L 426.59375 77.347656 L 8.59375 77.347656 L 6.621094 76.007812 L 6.621094 74.769531 Z M 8.285156 73.445312 " fill-opacity="1" fill-rule="evenodd"/></g><g clip-path="url(#255f5f314a)"><path fill="#ffbd59" d="M 409.089844 132.179688 C 398.007812 132.179688 388.992188 123.164062 388.992188 112.082031 C 388.992188 101 398.007812 91.984375 409.089844 91.984375 C 420.171875 91.984375 429.1875 101 429.1875 112.082031 C 429.1875 123.164062 420.171875 132.179688 409.089844 132.179688 Z M 409.089844 100.5625 C 402.738281 100.5625 397.570312 105.730469 397.570312 112.082031 C 397.570312 118.4375 402.738281 123.605469 409.089844 123.605469 C 415.441406 123.605469 420.609375 118.4375 420.609375 112.082031 C 420.609375 105.730469 415.441406 100.5625 409.089844 100.5625 Z M 409.089844 100.5625 " fill-opacity="1" fill-rule="nonzero"/></g></svg>