<svg xmlns="http://www.w3.org/2000/svg" xmlns:xlink="http://www.w3.org/1999/xlink" width="600" zoomAndPan="magnify" viewBox="0 0 450 449.999984" height="600" preserveAspectRatio="xMidYMid meet" version="1.0"><path fill="#010101" d="M 290.746094 188.828125 C 276.035156 189.351562 213.90625 191.640625 204.023438 187.539062 L 203.828125 147.179688 C 203.394531 126.453125 281.414062 165.496094 290.746094 188.828125 Z M 173.722656 143.09375 C 192.207031 139.058594 185.824219 175.082031 183.5 187.710938 C 171.53125 191.585938 113.71875 188.9375 96.089844 189.324219 C 108.976562 166.847656 149.425781 145.691406 173.722656 143.09375 Z M 24.488281 311.113281 C 32.667969 285.976562 25.753906 284.226562 43.613281 262.570312 C 73.140625 226.761719 132.710938 236.507812 150.667969 282.875 C 158.25 302.445312 147.015625 313.433594 169.242188 314.09375 C 187.917969 314.648438 283.320312 315.253906 286.832031 312.132812 C 287.078125 311.628906 287.324219 310.285156 287.40625 310.554688 C 287.492188 310.816406 291.28125 279.324219 307.457031 260.894531 C 329.488281 235.789062 374.933594 230.660156 404.246094 268.328125 C 422.273438 291.492188 414.082031 323.113281 430.847656 307.347656 C 442.257812 296.621094 449.960938 272.515625 444.398438 252.59375 C 433.820312 214.691406 390 200.675781 353.824219 198.402344 C 322.9375 196.457031 340.160156 198.0625 311.957031 166.511719 C 267.65625 116.949219 171.519531 90.558594 102.058594 143.835938 C 81.851562 159.332031 81.226562 161.253906 66.027344 179.476562 C 36.078125 215.371094 8.621094 204.65625 2.109375 260.332031 C 0.0429688 277.957031 2.734375 290.96875 11.777344 304.960938 C 15.570312 310.828125 15.394531 311.359375 24.488281 311.113281 Z M 24.488281 311.113281 " fill-opacity="1" fill-rule="evenodd"/><path fill="#010101" d="M 81.003906 261.488281 C 22.519531 276.621094 44.632812 359.8125 101.15625 346.671875 C 156.84375 333.726562 135.316406 247.4375 81.003906 261.488281 Z M 81.003906 261.488281 " fill-opacity="1" fill-rule="evenodd"/><path fill="#010101" d="M 347.542969 261 C 289.171875 269.324219 301.816406 355.292969 359.5625 347.585938 C 416.523438 339.980469 404.144531 252.933594 347.542969 261 Z M 347.542969 261 " fill-opacity="1" fill-rule="evenodd"/></svg>