<svg xmlns="http://www.w3.org/2000/svg" xmlns:xlink="http://www.w3.org/1999/xlink" width="600" zoomAndPan="magnify" viewBox="0 0 450 449.999984" height="600" preserveAspectRatio="xMidYMid meet" version="1.0"><defs><clipPath id="df4572ac75"><path d="M 86.222656 137 L 363.722656 137 L 363.722656 335 L 86.222656 335 Z M 86.222656 137 " clip-rule="nonzero"/></clipPath></defs><path fill="#ffbd59" d="M 450 225 C 450 228.683594 449.910156 232.363281 449.730469 236.039062 C 449.546875 239.71875 449.277344 243.390625 448.917969 247.054688 C 448.554688 250.71875 448.105469 254.371094 447.5625 258.015625 C 447.023438 261.65625 446.394531 265.285156 445.675781 268.894531 C 444.957031 272.507812 444.152344 276.097656 443.257812 279.671875 C 442.363281 283.242188 441.378906 286.789062 440.3125 290.3125 C 439.242188 293.835938 438.085938 297.332031 436.847656 300.800781 C 435.605469 304.265625 434.28125 307.703125 432.871094 311.105469 C 431.464844 314.503906 429.972656 317.871094 428.398438 321.199219 C 426.824219 324.527344 425.167969 327.816406 423.433594 331.0625 C 421.695312 334.3125 419.882812 337.515625 417.988281 340.671875 C 416.09375 343.832031 414.125 346.941406 412.082031 350.003906 C 410.035156 353.066406 407.914062 356.074219 405.722656 359.03125 C 403.527344 361.988281 401.261719 364.890625 398.925781 367.738281 C 396.589844 370.585938 394.1875 373.371094 391.714844 376.101562 C 389.242188 378.828125 386.703125 381.496094 384.097656 384.097656 C 381.496094 386.703125 378.828125 389.242188 376.101562 391.714844 C 373.371094 394.1875 370.585938 396.589844 367.738281 398.925781 C 364.890625 401.261719 361.988281 403.527344 359.03125 405.722656 C 356.074219 407.914062 353.066406 410.035156 350.003906 412.082031 C 346.941406 414.125 343.832031 416.097656 340.671875 417.988281 C 337.515625 419.882812 334.3125 421.695312 331.0625 423.433594 C 327.816406 425.167969 324.527344 426.824219 321.199219 428.398438 C 317.871094 429.972656 314.503906 431.464844 311.101562 432.871094 C 307.703125 434.28125 304.265625 435.605469 300.800781 436.847656 C 297.332031 438.085938 293.835938 439.242188 290.3125 440.3125 C 286.789062 441.378906 283.242188 442.363281 279.671875 443.257812 C 276.097656 444.152344 272.507812 444.957031 268.894531 445.675781 C 265.285156 446.394531 261.65625 447.023438 258.015625 447.566406 C 254.371094 448.105469 250.71875 448.554688 247.054688 448.917969 C 243.390625 449.277344 239.71875 449.546875 236.039062 449.730469 C 232.363281 449.910156 228.683594 450 225 450 C 221.316406 450 217.636719 449.910156 213.960938 449.730469 C 210.28125 449.546875 206.609375 449.277344 202.945312 448.917969 C 199.28125 448.554688 195.628906 448.105469 191.984375 447.566406 C 188.34375 447.023438 184.714844 446.394531 181.105469 445.675781 C 177.492188 444.957031 173.902344 444.152344 170.328125 443.257812 C 166.757812 442.363281 163.210938 441.378906 159.6875 440.3125 C 156.160156 439.242188 152.667969 438.085938 149.199219 436.847656 C 145.734375 435.605469 142.296875 434.28125 138.894531 432.871094 C 135.492188 431.464844 132.128906 429.972656 128.800781 428.398438 C 125.472656 426.824219 122.183594 425.167969 118.9375 423.433594 C 115.6875 421.695312 112.484375 419.882812 109.328125 417.988281 C 106.167969 416.097656 103.058594 414.125 99.996094 412.082031 C 96.933594 410.035156 93.925781 407.914062 90.96875 405.722656 C 88.011719 403.527344 85.109375 401.261719 82.261719 398.925781 C 79.414062 396.589844 76.628906 394.1875 73.898438 391.714844 C 71.171875 389.242188 68.503906 386.703125 65.902344 384.097656 C 63.296875 381.496094 60.757812 378.828125 58.285156 376.101562 C 55.8125 373.371094 53.410156 370.585938 51.074219 367.738281 C 48.738281 364.890625 46.472656 361.988281 44.277344 359.03125 C 42.085938 356.074219 39.964844 353.066406 37.917969 350.003906 C 35.875 346.941406 33.902344 343.832031 32.011719 340.671875 C 30.117188 337.515625 28.304688 334.3125 26.566406 331.0625 C 24.832031 327.816406 23.175781 324.527344 21.601562 321.199219 C 20.027344 317.871094 18.535156 314.503906 17.125 311.105469 C 15.71875 307.703125 14.394531 304.265625 13.152344 300.800781 C 11.910156 297.332031 10.757812 293.835938 9.6875 290.3125 C 8.621094 286.789062 7.636719 283.242188 6.742188 279.671875 C 5.847656 276.097656 5.042969 272.507812 4.324219 268.894531 C 3.605469 265.285156 2.976562 261.65625 2.433594 258.015625 C 1.894531 254.371094 1.445312 250.71875 1.082031 247.054688 C 0.722656 243.390625 0.453125 239.71875 0.269531 236.039062 C 0.0898438 232.363281 0 228.683594 0 225 C 0 221.316406 0.0898438 217.636719 0.269531 213.960938 C 0.453125 210.28125 0.722656 206.609375 1.082031 202.945312 C 1.445312 199.28125 1.894531 195.628906 2.433594 191.984375 C 2.976562 188.34375 3.605469 184.714844 4.324219 181.105469 C 5.042969 177.492188 5.847656 173.902344 6.742188 170.328125 C 7.636719 166.757812 8.621094 163.210938 9.6875 159.6875 C 10.757812 156.164062 11.910156 152.667969 13.152344 149.199219 C 14.394531 145.734375 15.71875 142.296875 17.125 138.894531 C 18.535156 135.496094 20.027344 132.128906 21.601562 128.800781 C 23.175781 125.472656 24.832031 122.183594 26.566406 118.9375 C 28.304688 115.6875 30.117188 112.484375 32.011719 109.328125 C 33.902344 106.167969 35.875 103.058594 37.917969 99.996094 C 39.964844 96.933594 42.085938 93.925781 44.277344 90.96875 C 46.472656 88.011719 48.738281 85.109375 51.074219 82.261719 C 53.410156 79.414062 55.8125 76.628906 58.285156 73.898438 C 60.757812 71.171875 63.296875 68.503906 65.902344 65.902344 C 68.503906 63.296875 71.171875 60.757812 73.898438 58.285156 C 76.628906 55.8125 79.414062 53.410156 82.261719 51.074219 C 85.109375 48.738281 88.011719 46.472656 90.96875 44.277344 C 93.925781 42.085938 96.933594 39.964844 99.996094 37.917969 C 103.058594 35.875 106.167969 33.902344 109.328125 32.011719 C 112.484375 30.117188 115.6875 28.304688 118.9375 26.566406 C 122.183594 24.832031 125.472656 23.175781 128.800781 21.601562 C 132.128906 20.027344 135.492188 18.535156 138.894531 17.128906 C 142.296875 15.71875 145.734375 14.394531 149.199219 13.152344 C 152.667969 11.910156 156.160156 10.757812 159.6875 9.6875 C 163.210938 8.621094 166.757812 7.636719 170.328125 6.742188 C 173.902344 5.847656 177.492188 5.042969 181.105469 4.324219 C 184.714844 3.605469 188.34375 2.976562 191.984375 2.433594 C 195.628906 1.894531 199.28125 1.445312 202.945312 1.082031 C 206.609375 0.722656 210.28125 0.453125 213.960938 0.269531 C 217.636719 0.0898438 221.316406 0 225 0 C 228.683594 0 232.363281 0.0898438 236.039062 0.269531 C 239.71875 0.453125 243.390625 0.722656 247.054688 1.082031 C 250.71875 1.445312 254.371094 1.894531 258.015625 2.433594 C 261.65625 2.976562 265.285156 3.605469 268.894531 4.324219 C 272.507812 5.042969 276.097656 5.847656 279.671875 6.742188 C 283.242188 7.636719 286.789062 8.621094 290.3125 9.6875 C 293.835938 10.757812 297.332031 11.910156 300.800781 13.152344 C 304.265625 14.394531 307.703125 15.71875 311.101562 17.128906 C 314.503906 18.535156 317.871094 20.027344 321.199219 21.601562 C 324.527344 23.175781 327.816406 24.832031 331.0625 26.566406 C 334.3125 28.304688 337.515625 30.117188 340.671875 32.011719 C 343.832031 33.902344 346.941406 35.875 350.003906 37.917969 C 353.066406 39.964844 356.074219 42.085938 359.03125 44.277344 C 361.988281 46.472656 364.890625 48.738281 367.738281 51.074219 C 370.585938 53.410156 373.371094 55.8125 376.101562 58.285156 C 378.828125 60.757812 381.496094 63.296875 384.097656 65.902344 C 386.703125 68.503906 389.242188 71.171875 391.714844 73.898438 C 394.1875 76.628906 396.589844 79.414062 398.925781 82.261719 C 401.261719 85.109375 403.527344 88.011719 405.722656 90.96875 C 407.914062 93.925781 410.035156 96.933594 412.082031 99.996094 C 414.125 103.058594 416.09375 106.167969 417.988281 109.328125 C 419.882812 112.484375 421.695312 115.6875 423.433594 118.9375 C 425.167969 122.183594 426.824219 125.472656 428.398438 128.800781 C 429.972656 132.128906 431.464844 135.496094 432.871094 138.894531 C 434.28125 142.296875 435.605469 145.734375 436.847656 149.199219 C 438.085938 152.667969 439.242188 156.164062 440.3125 159.6875 C 441.378906 163.210938 442.363281 166.757812 443.257812 170.328125 C 444.152344 173.902344 444.957031 177.492188 445.675781 181.105469 C 446.394531 184.714844 447.023438 188.34375 447.566406 191.984375 C 448.105469 195.628906 448.554688 199.28125 448.917969 202.945312 C 449.277344 206.609375 449.546875 210.28125 449.730469 213.960938 C 449.910156 217.636719 450 221.316406 450 225 Z M 450 225 " fill-opacity="1" fill-rule="nonzero"/><g clip-path="url(#df4572ac75)"><path fill="#ffffff" d="M 119.652344 267.816406 L 119.652344 297.75 C 119.652344 299.695312 120.8125 301.4375 122.601562 302.171875 C 124.390625 302.917969 126.449219 302.507812 127.816406 301.140625 L 161.140625 267.816406 L 168.675781 267.816406 L 168.675781 277.921875 C 168.675781 283.710938 170.972656 289.261719 175.066406 293.347656 C 179.164062 297.445312 184.714844 299.742188 190.503906 299.742188 L 288.851562 299.742188 L 322.175781 333.078125 C 323.546875 334.445312 325.613281 334.855469 327.390625 334.109375 C 329.183594 333.375 330.351562 331.621094 330.351562 329.6875 L 330.351562 299.742188 L 341.949219 299.742188 C 347.730469 299.742188 353.289062 297.445312 357.378906 293.347656 C 361.472656 289.261719 363.769531 283.710938 363.769531 277.921875 C 363.769531 254.921875 363.769531 214.179688 363.769531 191.183594 C 363.769531 185.394531 361.472656 179.84375 357.378906 175.746094 C 353.289062 171.660156 347.730469 169.351562 341.949219 169.351562 L 281.328125 169.351562 L 281.328125 159.246094 C 281.328125 153.457031 279.03125 147.90625 274.9375 143.820312 C 270.839844 139.722656 265.289062 137.425781 259.5 137.425781 C 224.183594 137.425781 143.367188 137.425781 108.054688 137.425781 C 102.261719 137.425781 96.710938 139.722656 92.617188 143.820312 C 88.53125 147.90625 86.222656 153.457031 86.222656 159.246094 C 86.222656 182.246094 86.222656 222.988281 86.222656 245.984375 C 86.222656 251.773438 88.53125 257.324219 92.617188 261.421875 C 96.710938 265.507812 102.261719 267.816406 108.054688 267.816406 Z M 281.328125 178.921875 L 281.328125 245.984375 C 281.328125 251.773438 279.03125 257.324219 274.9375 261.421875 C 270.839844 265.507812 265.289062 267.816406 259.5 267.816406 L 178.246094 267.816406 L 178.246094 277.921875 C 178.246094 281.164062 179.535156 284.285156 181.832031 286.582031 C 184.128906 288.890625 187.25 290.171875 190.503906 290.171875 L 291.1875 290.171875 C 293.074219 290.171875 294.699219 291.261719 295.472656 292.84375 L 320.78125 318.136719 L 320.78125 294.957031 L 320.789062 294.6875 L 320.796875 294.566406 C 321 292.105469 323.058594 290.171875 325.566406 290.171875 L 341.949219 290.171875 C 345.195312 290.171875 348.3125 288.890625 350.609375 286.582031 C 352.90625 284.285156 354.199219 281.164062 354.199219 277.921875 L 354.199219 191.183594 C 354.199219 187.929688 352.90625 184.820312 350.609375 182.511719 C 348.3125 180.214844 345.195312 178.921875 341.949219 178.921875 Z M 154.519531 260.90625 C 155.304688 259.324219 156.929688 258.246094 158.808594 258.246094 L 259.5 258.246094 C 262.753906 258.246094 265.871094 256.953125 268.167969 254.65625 C 270.464844 252.347656 271.757812 249.238281 271.757812 245.984375 L 271.757812 159.246094 C 271.757812 156 270.464844 152.882812 268.167969 150.585938 C 265.871094 148.277344 262.753906 146.996094 259.5 146.996094 L 108.054688 146.996094 C 104.800781 146.996094 101.6875 148.277344 99.382812 150.585938 C 97.085938 152.882812 95.792969 156 95.792969 159.246094 L 95.792969 245.984375 C 95.792969 249.238281 97.085938 252.347656 99.382812 254.65625 C 101.6875 256.953125 104.800781 258.246094 108.054688 258.246094 L 124.4375 258.246094 C 126.449219 258.246094 128.171875 259.488281 128.878906 261.25 L 128.898438 261.296875 C 129.109375 261.832031 129.214844 262.417969 129.222656 263.019531 L 129.222656 263.03125 C 129.222656 263.03125 129.222656 286.199219 129.222656 286.199219 Z M 129.835938 231.074219 L 237.726562 231.074219 C 240.367188 231.074219 242.511719 228.929688 242.511719 226.289062 C 242.511719 223.648438 240.367188 221.503906 237.726562 221.503906 L 129.835938 221.503906 C 127.195312 221.503906 125.050781 223.648438 125.050781 226.289062 C 125.050781 228.929688 127.195312 231.074219 129.835938 231.074219 Z M 129.835938 207.40625 L 237.726562 207.40625 C 240.367188 207.40625 242.511719 205.261719 242.511719 202.621094 C 242.511719 199.980469 240.367188 197.835938 237.726562 197.835938 L 129.835938 197.835938 C 127.195312 197.835938 125.050781 199.980469 125.050781 202.621094 C 125.050781 205.261719 127.195312 207.40625 129.835938 207.40625 Z M 129.835938 183.726562 L 237.726562 183.726562 C 240.367188 183.726562 242.511719 181.585938 242.511719 178.941406 C 242.511719 176.300781 240.367188 174.15625 237.726562 174.15625 L 129.835938 174.15625 C 127.195312 174.15625 125.050781 176.300781 125.050781 178.941406 C 125.050781 181.585938 127.195312 183.726562 129.835938 183.726562 Z M 129.835938 183.726562 " fill-opacity="1" fill-rule="evenodd"/></g></svg>