<svg xmlns="http://www.w3.org/2000/svg" xmlns:xlink="http://www.w3.org/1999/xlink" width="1080" zoomAndPan="magnify" viewBox="0 0 810 809.999993" height="1080" preserveAspectRatio="xMidYMid meet" version="1.0"><defs><clipPath id="1f06c20f36"><path d="M 4.382812 81 L 805 81 L 805 272 L 4.382812 272 Z M 4.382812 81 " clip-rule="nonzero"/></clipPath><clipPath id="dcb3d93195"><path d="M 4.382812 309 L 805 309 L 805 501 L 4.382812 501 Z M 4.382812 309 " clip-rule="nonzero"/></clipPath><clipPath id="d93d71776f"><path d="M 4.382812 538 L 805 538 L 805 729 L 4.382812 729 Z M 4.382812 538 " clip-rule="nonzero"/></clipPath></defs><g clip-path="url(#1f06c20f36)"><path fill="#000000" d="M 23.816406 195.351562 L 540.199219 195.351562 C 540.738281 198.019531 541.394531 200.660156 542.160156 203.273438 C 542.929688 205.882812 543.808594 208.457031 544.796875 210.996094 C 545.785156 213.53125 546.878906 216.023438 548.082031 218.464844 C 549.28125 220.90625 550.585938 223.292969 551.992188 225.625 C 553.398438 227.957031 554.902344 230.222656 556.503906 232.425781 C 558.101562 234.625 559.792969 236.753906 561.578125 238.8125 C 563.359375 240.871094 565.226562 242.847656 567.179688 244.742188 C 569.132812 246.640625 571.160156 248.449219 573.269531 250.171875 C 575.375 251.894531 577.554688 253.527344 579.800781 255.0625 C 582.046875 256.597656 584.355469 258.035156 586.726562 259.375 C 589.097656 260.710938 591.519531 261.945312 593.996094 263.078125 C 596.472656 264.207031 598.992188 265.230469 601.554688 266.144531 C 604.117188 267.058594 606.714844 267.863281 609.347656 268.554688 C 611.980469 269.246094 614.636719 269.824219 617.320312 270.289062 C 620 270.753906 622.699219 271.101562 625.410156 271.335938 C 628.121094 271.566406 630.835938 271.683594 633.558594 271.683594 C 636.28125 271.683594 638.996094 271.566406 641.707031 271.335938 C 644.421875 271.101562 647.117188 270.753906 649.800781 270.289062 C 652.480469 269.824219 655.136719 269.246094 657.769531 268.554688 C 660.402344 267.863281 663 267.058594 665.5625 266.144531 C 668.128906 265.230469 670.648438 264.207031 673.121094 263.078125 C 675.597656 261.945312 678.019531 260.710938 680.390625 259.375 C 682.761719 258.035156 685.070312 256.597656 687.316406 255.0625 C 689.5625 253.527344 691.742188 251.894531 693.847656 250.171875 C 695.957031 248.449219 697.984375 246.640625 699.9375 244.742188 C 701.890625 242.847656 703.757812 240.871094 705.539062 238.8125 C 707.324219 236.753906 709.015625 234.625 710.613281 232.425781 C 712.214844 230.222656 713.71875 227.957031 715.125 225.625 C 716.53125 223.292969 717.835938 220.90625 719.035156 218.464844 C 720.238281 216.023438 721.332031 213.53125 722.320312 210.996094 C 723.308594 208.457031 724.1875 205.882812 724.957031 203.273438 C 725.722656 200.660156 726.378906 198.019531 726.917969 195.351562 L 785.945312 195.351562 C 786.570312 195.351562 787.191406 195.324219 787.8125 195.261719 C 788.433594 195.199219 789.050781 195.109375 789.664062 194.988281 C 790.277344 194.863281 790.878906 194.714844 791.476562 194.53125 C 792.074219 194.351562 792.660156 194.140625 793.238281 193.902344 C 793.816406 193.664062 794.378906 193.398438 794.929688 193.101562 C 795.480469 192.808594 796.011719 192.488281 796.53125 192.140625 C 797.050781 191.792969 797.550781 191.421875 798.035156 191.027344 C 798.515625 190.628906 798.976562 190.210938 799.417969 189.769531 C 799.859375 189.328125 800.277344 188.867188 800.675781 188.386719 C 801.070312 187.902344 801.441406 187.402344 801.789062 186.882812 C 802.136719 186.363281 802.457031 185.828125 802.75 185.277344 C 803.042969 184.726562 803.3125 184.164062 803.550781 183.585938 C 803.789062 183.011719 804 182.425781 804.179688 181.828125 C 804.359375 181.230469 804.511719 180.625 804.632812 180.011719 C 804.753906 179.398438 804.847656 178.785156 804.910156 178.164062 C 804.96875 177.542969 805 176.917969 805 176.292969 C 805 175.671875 804.96875 175.046875 804.90625 174.425781 C 804.847656 173.804688 804.753906 173.1875 804.632812 172.574219 C 804.511719 171.964844 804.359375 171.359375 804.179688 170.761719 C 804 170.164062 803.789062 169.578125 803.550781 169 C 803.3125 168.425781 803.042969 167.859375 802.75 167.308594 C 802.457031 166.757812 802.136719 166.222656 801.789062 165.707031 C 801.441406 165.1875 801.070312 164.6875 800.675781 164.203125 C 800.277344 163.722656 799.859375 163.257812 799.417969 162.816406 C 798.976562 162.375 798.515625 161.957031 798.035156 161.5625 C 797.550781 161.164062 797.050781 160.792969 796.53125 160.449219 C 796.011719 160.101562 795.480469 159.78125 794.929688 159.484375 C 794.378906 159.191406 793.816406 158.925781 793.238281 158.6875 C 792.660156 158.445312 792.074219 158.238281 791.476562 158.054688 C 790.878906 157.875 790.277344 157.722656 789.664062 157.601562 C 789.050781 157.480469 788.433594 157.386719 787.8125 157.328125 C 787.191406 157.265625 786.570312 157.234375 785.945312 157.234375 L 726.84375 157.234375 C 726.300781 154.566406 725.648438 151.925781 724.878906 149.316406 C 724.113281 146.703125 723.234375 144.128906 722.246094 141.59375 C 721.257812 139.054688 720.160156 136.566406 718.960938 134.125 C 717.757812 131.679688 716.453125 129.292969 715.046875 126.964844 C 713.640625 124.632812 712.140625 122.367188 710.539062 120.164062 C 708.9375 117.960938 707.246094 115.832031 705.464844 113.777344 C 703.679688 111.71875 701.8125 109.742188 699.859375 107.84375 C 697.910156 105.949219 695.878906 104.136719 693.773438 102.414062 C 691.664062 100.691406 689.488281 99.0625 687.242188 97.527344 C 684.992188 95.988281 682.683594 94.554688 680.316406 93.214844 C 677.945312 91.875 675.523438 90.640625 673.046875 89.511719 C 670.570312 88.378906 668.050781 87.359375 665.488281 86.441406 C 662.925781 85.527344 660.324219 84.726562 657.695312 84.035156 C 655.0625 83.339844 652.40625 82.761719 649.722656 82.300781 C 647.039062 81.835938 644.34375 81.488281 641.632812 81.253906 C 638.921875 81.019531 636.203125 80.90625 633.484375 80.90625 C 630.761719 80.90625 628.042969 81.019531 625.332031 81.253906 C 622.621094 81.488281 619.925781 81.835938 617.242188 82.300781 C 614.5625 82.761719 611.902344 83.339844 609.269531 84.035156 C 606.640625 84.726562 604.042969 85.527344 601.476562 86.441406 C 598.914062 87.359375 596.394531 88.378906 593.917969 89.511719 C 591.441406 90.640625 589.019531 91.875 586.648438 93.214844 C 584.28125 94.554688 581.972656 95.988281 579.722656 97.527344 C 577.476562 99.0625 575.300781 100.691406 573.191406 102.414062 C 571.085938 104.136719 569.054688 105.949219 567.105469 107.84375 C 565.152344 109.742188 563.285156 111.71875 561.5 113.777344 C 559.71875 115.832031 558.027344 117.960938 556.425781 120.164062 C 554.828125 122.367188 553.324219 124.632812 551.917969 126.964844 C 550.511719 129.292969 549.207031 131.679688 548.003906 134.125 C 546.804688 136.566406 545.707031 139.054688 544.71875 141.59375 C 543.730469 144.128906 542.855469 146.703125 542.085938 149.316406 C 541.316406 151.925781 540.664062 154.566406 540.121094 157.234375 L 23.816406 157.234375 C 23.191406 157.234375 22.570312 157.265625 21.949219 157.328125 C 21.328125 157.386719 20.710938 157.480469 20.101562 157.601562 C 19.488281 157.722656 18.882812 157.875 18.285156 158.054688 C 17.6875 158.238281 17.101562 158.445312 16.527344 158.6875 C 15.949219 158.925781 15.386719 159.191406 14.835938 159.484375 C 14.285156 159.78125 13.75 160.101562 13.230469 160.449219 C 12.710938 160.792969 12.210938 161.164062 11.730469 161.5625 C 11.246094 161.957031 10.785156 162.375 10.34375 162.816406 C 9.902344 163.257812 9.484375 163.722656 9.089844 164.203125 C 8.691406 164.6875 8.320312 165.1875 7.972656 165.707031 C 7.628906 166.222656 7.308594 166.757812 7.011719 167.308594 C 6.71875 167.859375 6.453125 168.425781 6.214844 169 C 5.976562 169.578125 5.765625 170.164062 5.582031 170.761719 C 5.402344 171.359375 5.25 171.964844 5.128906 172.574219 C 5.007812 173.1875 4.917969 173.804688 4.855469 174.425781 C 4.792969 175.046875 4.761719 175.671875 4.761719 176.292969 C 4.761719 176.917969 4.792969 177.542969 4.855469 178.164062 C 4.917969 178.785156 5.007812 179.398438 5.128906 180.011719 C 5.25 180.625 5.402344 181.230469 5.582031 181.828125 C 5.765625 182.425781 5.976562 183.011719 6.214844 183.585938 C 6.453125 184.164062 6.71875 184.726562 7.011719 185.277344 C 7.308594 185.828125 7.628906 186.363281 7.972656 186.882812 C 8.320312 187.402344 8.691406 187.902344 9.089844 188.386719 C 9.484375 188.867188 9.902344 189.328125 10.34375 189.769531 C 10.785156 190.210938 11.246094 190.628906 11.730469 191.027344 C 12.210938 191.421875 12.710938 191.792969 13.230469 192.140625 C 13.75 192.488281 14.285156 192.808594 14.835938 193.101562 C 15.386719 193.398438 15.949219 193.664062 16.527344 193.902344 C 17.101562 194.140625 17.6875 194.351562 18.285156 194.53125 C 18.882812 194.714844 19.488281 194.863281 20.101562 194.988281 C 20.710938 195.109375 21.328125 195.199219 21.949219 195.261719 C 22.570312 195.324219 23.191406 195.351562 23.816406 195.351562 Z M 633.519531 119.117188 C 635.394531 119.117188 637.261719 119.210938 639.125 119.394531 C 640.988281 119.578125 642.835938 119.851562 644.671875 120.214844 C 646.507812 120.582031 648.320312 121.035156 650.113281 121.578125 C 651.90625 122.125 653.664062 122.753906 655.394531 123.46875 C 657.125 124.1875 658.816406 124.984375 660.464844 125.867188 C 662.117188 126.75 663.71875 127.714844 665.277344 128.753906 C 666.832031 129.792969 668.335938 130.90625 669.78125 132.097656 C 671.230469 133.285156 672.613281 134.539062 673.9375 135.863281 C 675.261719 137.1875 676.519531 138.574219 677.707031 140.023438 C 678.894531 141.46875 680.007812 142.972656 681.046875 144.527344 C 682.085938 146.085938 683.046875 147.691406 683.929688 149.339844 C 684.8125 150.992188 685.613281 152.683594 686.328125 154.414062 C 687.046875 156.144531 687.675781 157.90625 688.21875 159.695312 C 688.761719 161.488281 689.21875 163.304688 689.582031 165.140625 C 689.949219 166.976562 690.222656 168.828125 690.40625 170.691406 C 690.589844 172.554688 690.679688 174.421875 690.679688 176.292969 C 690.679688 178.167969 690.589844 180.035156 690.40625 181.898438 C 690.222656 183.761719 689.949219 185.613281 689.582031 187.449219 C 689.21875 189.285156 688.761719 191.097656 688.21875 192.890625 C 687.675781 194.683594 687.046875 196.445312 686.328125 198.175781 C 685.613281 199.90625 684.8125 201.59375 683.929688 203.246094 C 683.046875 204.898438 682.085938 206.503906 681.046875 208.058594 C 680.007812 209.617188 678.894531 211.117188 677.707031 212.566406 C 676.519531 214.015625 675.261719 215.398438 673.9375 216.722656 C 672.613281 218.046875 671.230469 219.304688 669.78125 220.492188 C 668.335938 221.679688 666.832031 222.792969 665.277344 223.835938 C 663.71875 224.875 662.117188 225.835938 660.464844 226.71875 C 658.816406 227.601562 657.125 228.402344 655.394531 229.117188 C 653.664062 229.835938 651.90625 230.464844 650.113281 231.007812 C 648.320312 231.550781 646.507812 232.007812 644.671875 232.371094 C 642.835938 232.738281 640.988281 233.011719 639.125 233.195312 C 637.261719 233.378906 635.394531 233.46875 633.519531 233.46875 C 631.648438 233.46875 629.78125 233.378906 627.917969 233.195312 C 626.054688 233.011719 624.207031 232.738281 622.371094 232.371094 C 620.535156 232.007812 618.71875 231.550781 616.929688 231.007812 C 615.136719 230.464844 613.375 229.835938 611.648438 229.117188 C 609.917969 228.402344 608.226562 227.601562 606.574219 226.71875 C 604.925781 225.835938 603.320312 224.875 601.765625 223.835938 C 600.207031 222.792969 598.707031 221.679688 597.257812 220.492188 C 595.8125 219.304688 594.425781 218.046875 593.101562 216.722656 C 591.777344 215.398438 590.523438 214.015625 589.335938 212.566406 C 588.148438 211.117188 587.035156 209.617188 585.992188 208.058594 C 584.953125 206.503906 583.992188 204.898438 583.109375 203.246094 C 582.226562 201.59375 581.429688 199.90625 580.710938 198.175781 C 579.996094 196.445312 579.367188 194.683594 578.824219 192.890625 C 578.277344 191.097656 577.824219 189.285156 577.460938 187.449219 C 577.09375 185.613281 576.820312 183.761719 576.636719 181.898438 C 576.453125 180.035156 576.359375 178.167969 576.359375 176.292969 C 576.359375 174.421875 576.453125 172.554688 576.636719 170.691406 C 576.820312 168.828125 577.09375 166.976562 577.460938 165.140625 C 577.824219 163.304688 578.277344 161.488281 578.824219 159.695312 C 579.367188 157.90625 579.996094 156.144531 580.710938 154.414062 C 581.429688 152.683594 582.226562 150.992188 583.109375 149.339844 C 583.992188 147.691406 584.953125 146.085938 585.992188 144.527344 C 587.035156 142.972656 588.148438 141.46875 589.335938 140.023438 C 590.523438 138.574219 591.777344 137.1875 593.101562 135.863281 C 594.425781 134.539062 595.8125 133.285156 597.257812 132.097656 C 598.707031 130.90625 600.207031 129.792969 601.765625 128.753906 C 603.320312 127.714844 604.925781 126.75 606.574219 125.867188 C 608.226562 124.984375 609.917969 124.1875 611.648438 123.46875 C 613.375 122.753906 615.136719 122.125 616.929688 121.578125 C 618.71875 121.035156 620.535156 120.582031 622.371094 120.214844 C 624.207031 119.851562 626.054688 119.578125 627.917969 119.394531 C 629.78125 119.210938 631.648438 119.117188 633.519531 119.117188 Z M 633.519531 119.117188 " fill-opacity="1" fill-rule="nonzero"/></g><g clip-path="url(#dcb3d93195)"><path fill="#000000" d="M 785.945312 385.941406 L 498.203125 385.941406 C 497.664062 383.273438 497.007812 380.632812 496.242188 378.019531 C 495.472656 375.410156 494.59375 372.835938 493.605469 370.296875 C 492.617188 367.761719 491.523438 365.273438 490.320312 362.828125 C 489.121094 360.386719 487.816406 358 486.410156 355.667969 C 485.003906 353.339844 483.5 351.070312 481.898438 348.871094 C 480.300781 346.667969 478.609375 344.539062 476.824219 342.480469 C 475.042969 340.425781 473.175781 338.449219 471.222656 336.550781 C 469.269531 334.652344 467.242188 332.84375 465.132812 331.121094 C 463.027344 329.398438 460.847656 327.769531 458.601562 326.230469 C 456.355469 324.695312 454.046875 323.257812 451.675781 321.921875 C 449.304688 320.582031 446.882812 319.347656 444.40625 318.214844 C 441.933594 317.085938 439.410156 316.0625 436.847656 315.148438 C 434.285156 314.234375 431.6875 313.429688 429.054688 312.738281 C 426.421875 312.046875 423.765625 311.46875 421.082031 311.003906 C 418.402344 310.539062 415.707031 310.191406 412.992188 309.960938 C 410.28125 309.726562 407.566406 309.609375 404.84375 309.609375 C 402.121094 309.609375 399.40625 309.726562 396.695312 309.960938 C 393.980469 310.191406 391.285156 310.539062 388.605469 311.003906 C 385.921875 311.46875 383.265625 312.046875 380.632812 312.738281 C 378 313.429688 375.402344 314.234375 372.839844 315.148438 C 370.273438 316.0625 367.753906 317.085938 365.28125 318.214844 C 362.804688 319.347656 360.382812 320.582031 358.011719 321.921875 C 355.640625 323.257812 353.332031 324.695312 351.085938 326.230469 C 348.839844 327.769531 346.660156 329.398438 344.554688 331.121094 C 342.445312 332.84375 340.417969 334.652344 338.464844 336.550781 C 336.511719 338.449219 334.644531 340.425781 332.863281 342.480469 C 331.078125 344.539062 329.386719 346.667969 327.789062 348.871094 C 326.1875 351.070312 324.683594 353.339844 323.277344 355.667969 C 321.871094 358 320.566406 360.386719 319.367188 362.828125 C 318.164062 365.273438 317.070312 367.761719 316.082031 370.296875 C 315.09375 372.835938 314.214844 375.410156 313.445312 378.019531 C 312.679688 380.632812 312.023438 383.273438 311.484375 385.941406 L 23.816406 385.941406 C 23.191406 385.941406 22.570312 385.972656 21.949219 386.03125 C 21.328125 386.09375 20.710938 386.1875 20.101562 386.308594 C 19.488281 386.429688 18.882812 386.582031 18.285156 386.761719 C 17.6875 386.941406 17.101562 387.152344 16.527344 387.390625 C 15.949219 387.628906 15.386719 387.898438 14.835938 388.191406 C 14.285156 388.484375 13.75 388.804688 13.230469 389.152344 C 12.710938 389.5 12.210938 389.871094 11.730469 390.265625 C 11.246094 390.664062 10.785156 391.082031 10.34375 391.523438 C 9.902344 391.964844 9.484375 392.425781 9.089844 392.910156 C 8.691406 393.390625 8.320312 393.890625 7.972656 394.410156 C 7.628906 394.929688 7.308594 395.464844 7.011719 396.015625 C 6.71875 396.566406 6.453125 397.128906 6.214844 397.707031 C 5.976562 398.28125 5.765625 398.871094 5.582031 399.46875 C 5.402344 400.066406 5.25 400.667969 5.128906 401.28125 C 5.007812 401.894531 4.917969 402.511719 4.855469 403.132812 C 4.792969 403.753906 4.761719 404.375 4.761719 405 C 4.761719 405.625 4.792969 406.246094 4.855469 406.867188 C 4.917969 407.488281 5.007812 408.105469 5.128906 408.71875 C 5.25 409.332031 5.402344 409.933594 5.582031 410.53125 C 5.765625 411.128906 5.976562 411.714844 6.214844 412.292969 C 6.453125 412.871094 6.71875 413.433594 7.011719 413.984375 C 7.308594 414.535156 7.628906 415.070312 7.972656 415.589844 C 8.320312 416.109375 8.691406 416.609375 9.089844 417.089844 C 9.484375 417.574219 9.902344 418.035156 10.34375 418.476562 C 10.785156 418.917969 11.246094 419.335938 11.730469 419.734375 C 12.210938 420.128906 12.710938 420.5 13.230469 420.847656 C 13.75 421.195312 14.285156 421.515625 14.835938 421.808594 C 15.386719 422.101562 15.949219 422.367188 16.527344 422.609375 C 17.101562 422.847656 17.6875 423.058594 18.285156 423.238281 C 18.882812 423.417969 19.488281 423.570312 20.101562 423.691406 C 20.710938 423.8125 21.328125 423.90625 21.949219 423.96875 C 22.570312 424.027344 23.191406 424.058594 23.816406 424.058594 L 311.558594 424.058594 C 312.101562 426.726562 312.753906 429.367188 313.523438 431.980469 C 314.289062 434.589844 315.167969 437.164062 316.15625 439.703125 C 317.144531 442.238281 318.242188 444.726562 319.441406 447.171875 C 320.644531 449.613281 321.949219 452 323.355469 454.332031 C 324.761719 456.660156 326.261719 458.929688 327.863281 461.128906 C 329.464844 463.332031 331.15625 465.460938 332.9375 467.519531 C 334.722656 469.574219 336.589844 471.550781 338.542969 473.449219 C 340.492188 475.347656 342.523438 477.15625 344.628906 478.878906 C 346.738281 480.601562 348.914062 482.230469 351.160156 483.769531 C 353.410156 485.304688 355.71875 486.742188 358.085938 488.078125 C 360.457031 489.417969 362.878906 490.652344 365.355469 491.785156 C 367.832031 492.914062 370.351562 493.9375 372.914062 494.851562 C 375.476562 495.765625 378.078125 496.570312 380.707031 497.261719 C 383.339844 497.953125 385.996094 498.53125 388.679688 498.996094 C 391.363281 499.460938 394.058594 499.808594 396.769531 500.039062 C 399.480469 500.273438 402.199219 500.390625 404.917969 500.390625 C 407.640625 500.390625 410.359375 500.273438 413.070312 500.039062 C 415.78125 499.808594 418.476562 499.460938 421.160156 498.996094 C 423.84375 498.53125 426.5 497.953125 429.132812 497.261719 C 431.761719 496.570312 434.359375 495.765625 436.925781 494.851562 C 439.488281 493.9375 442.007812 492.914062 444.484375 491.785156 C 446.960938 490.652344 449.382812 489.417969 451.753906 488.078125 C 454.121094 486.742188 456.429688 485.304688 458.679688 483.769531 C 460.925781 482.230469 463.101562 480.601562 465.210938 478.878906 C 467.316406 477.15625 469.347656 475.347656 471.296875 473.449219 C 473.25 471.550781 475.117188 469.574219 476.902344 467.519531 C 478.683594 465.460938 480.375 463.332031 481.976562 461.128906 C 483.578125 458.929688 485.078125 456.660156 486.484375 454.332031 C 487.890625 452 489.195312 449.613281 490.398438 447.171875 C 491.597656 444.726562 492.695312 442.238281 493.683594 439.703125 C 494.671875 437.164062 495.550781 434.589844 496.316406 431.980469 C 497.085938 429.367188 497.738281 426.726562 498.28125 424.058594 L 785.945312 424.058594 C 786.570312 424.058594 787.191406 424.027344 787.8125 423.96875 C 788.433594 423.90625 789.050781 423.8125 789.664062 423.691406 C 790.277344 423.570312 790.878906 423.417969 791.476562 423.238281 C 792.074219 423.058594 792.660156 422.847656 793.238281 422.609375 C 793.816406 422.367188 794.378906 422.101562 794.929688 421.808594 C 795.480469 421.515625 796.011719 421.195312 796.53125 420.847656 C 797.050781 420.5 797.550781 420.128906 798.035156 419.734375 C 798.515625 419.335938 798.976562 418.917969 799.417969 418.476562 C 799.859375 418.035156 800.277344 417.574219 800.675781 417.089844 C 801.070312 416.609375 801.441406 416.109375 801.789062 415.589844 C 802.136719 415.070312 802.457031 414.535156 802.75 413.984375 C 803.042969 413.433594 803.3125 412.871094 803.550781 412.292969 C 803.789062 411.714844 804 411.128906 804.179688 410.53125 C 804.359375 409.933594 804.511719 409.332031 804.632812 408.71875 C 804.753906 408.105469 804.847656 407.488281 804.910156 406.867188 C 804.96875 406.246094 805 405.625 805 405 C 805 404.375 804.96875 403.753906 804.90625 403.132812 C 804.847656 402.511719 804.753906 401.894531 804.632812 401.28125 C 804.511719 400.667969 804.359375 400.066406 804.179688 399.46875 C 804 398.871094 803.789062 398.28125 803.550781 397.707031 C 803.3125 397.128906 803.042969 396.566406 802.75 396.015625 C 802.457031 395.464844 802.136719 394.929688 801.789062 394.410156 C 801.441406 393.890625 801.070312 393.390625 800.675781 392.910156 C 800.277344 392.425781 799.859375 391.964844 799.417969 391.523438 C 798.976562 391.082031 798.515625 390.664062 798.035156 390.265625 C 797.550781 389.871094 797.050781 389.5 796.53125 389.152344 C 796.011719 388.804688 795.480469 388.484375 794.929688 388.191406 C 794.378906 387.898438 793.816406 387.628906 793.238281 387.390625 C 792.660156 387.152344 792.074219 386.941406 791.476562 386.761719 C 790.878906 386.582031 790.277344 386.429688 789.664062 386.308594 C 789.050781 386.1875 788.433594 386.09375 787.8125 386.03125 C 787.191406 385.972656 786.570312 385.941406 785.945312 385.941406 Z M 404.882812 462.175781 C 403.007812 462.175781 401.140625 462.085938 399.277344 461.902344 C 397.417969 461.71875 395.566406 461.441406 393.730469 461.078125 C 391.894531 460.710938 390.082031 460.257812 388.289062 459.714844 C 386.496094 459.171875 384.738281 458.539062 383.007812 457.824219 C 381.277344 457.109375 379.585938 456.308594 377.9375 455.425781 C 376.285156 454.542969 374.683594 453.582031 373.125 452.539062 C 371.570312 451.5 370.066406 450.386719 368.621094 449.199219 C 367.171875 448.011719 365.789062 446.753906 364.464844 445.429688 C 363.140625 444.105469 361.882812 442.71875 360.695312 441.273438 C 359.507812 439.824219 358.394531 438.324219 357.355469 436.765625 C 356.316406 435.207031 355.355469 433.605469 354.472656 431.953125 C 353.589844 430.300781 352.789062 428.609375 352.074219 426.878906 C 351.355469 425.152344 350.726562 423.390625 350.183594 421.597656 C 349.640625 419.804688 349.183594 417.992188 348.820312 416.15625 C 348.453125 414.316406 348.179688 412.46875 347.996094 410.605469 C 347.8125 408.742188 347.722656 406.871094 347.722656 405 C 347.722656 403.128906 347.8125 401.257812 347.996094 399.394531 C 348.179688 397.53125 348.453125 395.683594 348.820312 393.84375 C 349.183594 392.007812 349.640625 390.195312 350.183594 388.402344 C 350.726562 386.609375 351.355469 384.847656 352.074219 383.121094 C 352.789062 381.390625 353.589844 379.699219 354.472656 378.046875 C 355.355469 376.394531 356.316406 374.792969 357.355469 373.234375 C 358.394531 371.675781 359.507812 370.175781 360.695312 368.726562 C 361.882812 367.28125 363.140625 365.894531 364.464844 364.570312 C 365.789062 363.246094 367.171875 361.988281 368.621094 360.800781 C 370.066406 359.613281 371.570312 358.5 373.125 357.460938 C 374.683594 356.417969 376.285156 355.457031 377.9375 354.574219 C 379.585938 353.691406 381.277344 352.890625 383.007812 352.175781 C 384.738281 351.460938 386.496094 350.828125 388.289062 350.285156 C 390.082031 349.742188 391.894531 349.289062 393.730469 348.921875 C 395.566406 348.558594 397.417969 348.28125 399.277344 348.097656 C 401.140625 347.914062 403.007812 347.824219 404.882812 347.824219 C 406.753906 347.824219 408.621094 347.914062 410.484375 348.097656 C 412.347656 348.28125 414.195312 348.558594 416.03125 348.921875 C 417.867188 349.289062 419.683594 349.742188 421.472656 350.285156 C 423.265625 350.828125 425.027344 351.460938 426.753906 352.175781 C 428.484375 352.890625 430.175781 353.691406 431.828125 354.574219 C 433.476562 355.457031 435.082031 356.417969 436.636719 357.460938 C 438.195312 358.5 439.695312 359.613281 441.144531 360.800781 C 442.589844 361.988281 443.976562 363.246094 445.300781 364.570312 C 446.625 365.894531 447.878906 367.28125 449.066406 368.726562 C 450.253906 370.175781 451.367188 371.675781 452.410156 373.234375 C 453.449219 374.792969 454.410156 376.394531 455.292969 378.046875 C 456.175781 379.699219 456.972656 381.390625 457.691406 383.121094 C 458.40625 384.847656 459.035156 386.609375 459.582031 388.402344 C 460.125 390.195312 460.578125 392.007812 460.941406 393.84375 C 461.308594 395.683594 461.582031 397.53125 461.765625 399.394531 C 461.949219 401.257812 462.042969 403.128906 462.042969 405 C 462.042969 406.871094 461.949219 408.742188 461.765625 410.605469 C 461.582031 412.46875 461.308594 414.316406 460.941406 416.15625 C 460.578125 417.992188 460.125 419.804688 459.582031 421.597656 C 459.035156 423.390625 458.40625 425.152344 457.691406 426.878906 C 456.972656 428.609375 456.175781 430.300781 455.292969 431.953125 C 454.410156 433.605469 453.449219 435.207031 452.410156 436.765625 C 451.367188 438.324219 450.253906 439.824219 449.066406 441.273438 C 447.878906 442.71875 446.625 444.105469 445.300781 445.429688 C 443.976562 446.753906 442.589844 448.011719 441.144531 449.199219 C 439.695312 450.386719 438.195312 451.5 436.636719 452.539062 C 435.082031 453.582031 433.476562 454.542969 431.828125 455.425781 C 430.175781 456.308594 428.484375 457.109375 426.753906 457.824219 C 425.027344 458.539062 423.265625 459.171875 421.472656 459.714844 C 419.683594 460.257812 417.867188 460.710938 416.03125 461.078125 C 414.195312 461.441406 412.347656 461.71875 410.484375 461.902344 C 408.621094 462.085938 406.753906 462.175781 404.882812 462.175781 Z M 404.882812 462.175781 " fill-opacity="1" fill-rule="nonzero"/></g><g clip-path="url(#d93d71776f)"><path fill="#000000" d="M 785.945312 614.648438 L 269.566406 614.648438 C 269.023438 611.980469 268.371094 609.339844 267.601562 606.726562 C 266.832031 604.117188 265.957031 601.542969 264.96875 599.003906 C 263.980469 596.46875 262.882812 593.976562 261.683594 591.535156 C 260.480469 589.09375 259.175781 586.707031 257.769531 584.375 C 256.363281 582.042969 254.859375 579.777344 253.261719 577.574219 C 251.660156 575.375 249.96875 573.246094 248.1875 571.1875 C 246.402344 569.128906 244.535156 567.152344 242.582031 565.257812 C 240.632812 563.359375 238.601562 561.550781 236.492188 559.828125 C 234.386719 558.105469 232.210938 556.472656 229.960938 554.9375 C 227.714844 553.402344 225.40625 551.964844 223.039062 550.625 C 220.667969 549.289062 218.246094 548.054688 215.769531 546.921875 C 213.292969 545.792969 210.773438 544.769531 208.210938 543.855469 C 205.644531 542.941406 203.046875 542.136719 200.414062 541.445312 C 197.785156 540.753906 195.125 540.175781 192.445312 539.710938 C 189.761719 539.246094 187.066406 538.898438 184.355469 538.664062 C 181.644531 538.433594 178.925781 538.316406 176.203125 538.316406 C 173.484375 538.316406 170.765625 538.433594 168.054688 538.664062 C 165.34375 538.898438 162.644531 539.246094 159.964844 539.710938 C 157.28125 540.175781 154.625 540.753906 151.992188 541.445312 C 149.359375 542.136719 146.761719 542.941406 144.199219 543.855469 C 141.636719 544.769531 139.117188 545.792969 136.640625 546.921875 C 134.164062 548.054688 131.742188 549.289062 129.371094 550.625 C 127.003906 551.964844 124.695312 553.402344 122.445312 554.9375 C 120.199219 556.472656 118.023438 558.105469 115.914062 559.828125 C 113.808594 561.550781 111.777344 563.359375 109.824219 565.257812 C 107.875 567.152344 106.007812 569.128906 104.222656 571.1875 C 102.441406 573.246094 100.75 575.375 99.148438 577.574219 C 97.546875 579.777344 96.046875 582.042969 94.640625 584.375 C 93.234375 586.707031 91.929688 589.09375 90.726562 591.535156 C 89.527344 593.976562 88.429688 596.46875 87.441406 599.003906 C 86.453125 601.542969 85.574219 604.117188 84.808594 606.726562 C 84.039062 609.339844 83.386719 611.980469 82.84375 614.648438 L 23.816406 614.648438 C 23.191406 614.648438 22.570312 614.679688 21.949219 614.738281 C 21.328125 614.800781 20.710938 614.890625 20.101562 615.011719 C 19.488281 615.136719 18.882812 615.285156 18.285156 615.46875 C 17.6875 615.648438 17.101562 615.859375 16.527344 616.097656 C 15.949219 616.335938 15.386719 616.601562 14.835938 616.898438 C 14.285156 617.191406 13.75 617.511719 13.230469 617.859375 C 12.710938 618.207031 12.210938 618.578125 11.730469 618.972656 C 11.246094 619.371094 10.785156 619.789062 10.34375 620.230469 C 9.902344 620.671875 9.484375 621.132812 9.089844 621.613281 C 8.691406 622.097656 8.320312 622.597656 7.972656 623.117188 C 7.628906 623.636719 7.308594 624.171875 7.011719 624.722656 C 6.71875 625.273438 6.453125 625.835938 6.214844 626.414062 C 5.976562 626.988281 5.765625 627.574219 5.582031 628.171875 C 5.402344 628.769531 5.25 629.375 5.128906 629.988281 C 5.007812 630.601562 4.917969 631.214844 4.855469 631.835938 C 4.792969 632.460938 4.761719 633.082031 4.761719 633.707031 C 4.761719 634.332031 4.792969 634.953125 4.855469 635.574219 C 4.917969 636.195312 5.007812 636.8125 5.128906 637.425781 C 5.25 638.035156 5.402344 638.640625 5.582031 639.238281 C 5.765625 639.835938 5.976562 640.421875 6.214844 641 C 6.453125 641.574219 6.71875 642.140625 7.011719 642.691406 C 7.308594 643.242188 7.628906 643.773438 7.972656 644.292969 C 8.320312 644.8125 8.691406 645.3125 9.089844 645.796875 C 9.484375 646.277344 9.902344 646.742188 10.34375 647.183594 C 10.785156 647.625 11.246094 648.042969 11.730469 648.4375 C 12.210938 648.835938 12.710938 649.207031 13.230469 649.550781 C 13.75 649.898438 14.285156 650.21875 14.835938 650.515625 C 15.386719 650.808594 15.949219 651.074219 16.527344 651.3125 C 17.101562 651.550781 17.6875 651.761719 18.285156 651.945312 C 18.882812 652.125 19.488281 652.277344 20.101562 652.398438 C 20.710938 652.519531 21.328125 652.613281 21.949219 652.671875 C 22.570312 652.734375 23.191406 652.765625 23.816406 652.765625 L 82.921875 652.765625 C 83.460938 655.433594 84.117188 658.074219 84.882812 660.683594 C 85.652344 663.296875 86.53125 665.871094 87.519531 668.40625 C 88.507812 670.945312 89.601562 673.433594 90.804688 675.875 C 92.003906 678.320312 93.308594 680.707031 94.714844 683.035156 C 96.121094 685.367188 97.625 687.632812 99.226562 689.835938 C 100.824219 692.039062 102.515625 694.167969 104.300781 696.222656 C 106.082031 698.28125 107.949219 700.257812 109.902344 702.15625 C 111.855469 704.050781 113.882812 705.863281 115.992188 707.585938 C 118.097656 709.308594 120.277344 710.9375 122.523438 712.472656 C 124.769531 714.011719 127.078125 715.449219 129.449219 716.785156 C 131.816406 718.125 134.242188 719.359375 136.71875 720.488281 C 139.191406 721.621094 141.710938 722.640625 144.277344 723.558594 C 146.839844 724.472656 149.4375 725.273438 152.070312 725.964844 C 154.703125 726.660156 157.359375 727.238281 160.039062 727.699219 C 162.722656 728.164062 165.417969 728.511719 168.132812 728.746094 C 170.84375 728.980469 173.558594 729.09375 176.28125 729.09375 C 179.003906 729.09375 181.71875 728.980469 184.429688 728.746094 C 187.140625 728.511719 189.839844 728.164062 192.519531 727.699219 C 195.203125 727.238281 197.859375 726.660156 200.492188 725.964844 C 203.125 725.273438 205.722656 724.472656 208.285156 723.558594 C 210.847656 722.640625 213.367188 721.621094 215.84375 720.488281 C 218.320312 719.359375 220.742188 718.125 223.113281 716.785156 C 225.484375 715.449219 227.792969 714.011719 230.039062 712.472656 C 232.285156 710.9375 234.464844 709.308594 236.570312 707.585938 C 238.675781 705.863281 240.707031 704.050781 242.660156 702.15625 C 244.613281 700.257812 246.480469 698.28125 248.261719 696.222656 C 250.046875 694.167969 251.738281 692.039062 253.335938 689.835938 C 254.9375 687.632812 256.441406 685.367188 257.847656 683.035156 C 259.253906 680.707031 260.558594 678.320312 261.757812 675.875 C 262.960938 673.433594 264.054688 670.945312 265.042969 668.40625 C 266.03125 665.871094 266.910156 663.296875 267.679688 660.683594 C 268.445312 658.074219 269.101562 655.433594 269.640625 652.765625 L 785.945312 652.765625 C 786.570312 652.765625 787.191406 652.734375 787.8125 652.671875 C 788.433594 652.613281 789.050781 652.519531 789.664062 652.398438 C 790.277344 652.277344 790.878906 652.125 791.476562 651.945312 C 792.074219 651.761719 792.660156 651.550781 793.238281 651.3125 C 793.816406 651.074219 794.378906 650.808594 794.929688 650.515625 C 795.480469 650.21875 796.011719 649.898438 796.53125 649.550781 C 797.050781 649.207031 797.550781 648.835938 798.035156 648.4375 C 798.515625 648.042969 798.976562 647.625 799.417969 647.183594 C 799.859375 646.742188 800.277344 646.277344 800.675781 645.796875 C 801.070312 645.3125 801.441406 644.8125 801.789062 644.292969 C 802.136719 643.773438 802.457031 643.242188 802.75 642.691406 C 803.042969 642.140625 803.3125 641.574219 803.550781 641 C 803.789062 640.421875 804 639.835938 804.179688 639.238281 C 804.359375 638.640625 804.511719 638.035156 804.632812 637.425781 C 804.753906 636.8125 804.847656 636.195312 804.910156 635.574219 C 804.96875 634.953125 805 634.332031 805 633.707031 C 805 633.082031 804.96875 632.460938 804.90625 631.835938 C 804.847656 631.214844 804.753906 630.601562 804.632812 629.988281 C 804.511719 629.375 804.359375 628.769531 804.179688 628.171875 C 804 627.574219 803.789062 626.988281 803.550781 626.414062 C 803.3125 625.835938 803.042969 625.273438 802.75 624.722656 C 802.457031 624.171875 802.136719 623.636719 801.789062 623.117188 C 801.441406 622.597656 801.070312 622.097656 800.675781 621.613281 C 800.277344 621.132812 799.859375 620.671875 799.417969 620.230469 C 798.976562 619.789062 798.515625 619.371094 798.035156 618.972656 C 797.550781 618.578125 797.050781 618.207031 796.53125 617.859375 C 796.011719 617.511719 795.480469 617.191406 794.929688 616.898438 C 794.378906 616.601562 793.816406 616.335938 793.238281 616.097656 C 792.660156 615.859375 792.074219 615.648438 791.476562 615.46875 C 790.878906 615.285156 790.277344 615.136719 789.664062 615.011719 C 789.050781 614.890625 788.433594 614.800781 787.8125 614.738281 C 787.191406 614.679688 786.570312 614.648438 785.945312 614.648438 Z M 176.242188 690.882812 C 174.371094 690.882812 172.503906 690.789062 170.640625 690.605469 C 168.777344 690.421875 166.925781 690.148438 165.089844 689.785156 C 163.253906 689.417969 161.441406 688.964844 159.648438 688.421875 C 157.859375 687.875 156.097656 687.246094 154.367188 686.53125 C 152.640625 685.8125 150.949219 685.015625 149.296875 684.132812 C 147.648438 683.25 146.042969 682.285156 144.488281 681.246094 C 142.929688 680.207031 141.429688 679.09375 139.980469 677.902344 C 138.535156 676.714844 137.148438 675.460938 135.824219 674.136719 C 134.5 672.8125 133.246094 671.425781 132.058594 669.976562 C 130.871094 668.53125 129.757812 667.027344 128.714844 665.472656 C 127.675781 663.914062 126.714844 662.308594 125.832031 660.660156 C 124.949219 659.007812 124.152344 657.316406 123.433594 655.585938 C 122.71875 653.855469 122.085938 652.09375 121.542969 650.304688 C 121 648.511719 120.546875 646.695312 120.179688 644.859375 C 119.816406 643.023438 119.542969 641.171875 119.359375 639.308594 C 119.175781 637.445312 119.082031 635.578125 119.082031 633.707031 C 119.082031 631.832031 119.175781 629.964844 119.359375 628.101562 C 119.542969 626.238281 119.816406 624.386719 120.179688 622.550781 C 120.546875 620.714844 121 618.898438 121.542969 617.109375 C 122.085938 615.316406 122.71875 613.554688 123.433594 611.824219 C 124.152344 610.09375 124.949219 608.40625 125.832031 606.753906 C 126.714844 605.101562 127.675781 603.496094 128.714844 601.941406 C 129.757812 600.382812 130.871094 598.882812 132.058594 597.433594 C 133.246094 595.984375 134.5 594.601562 135.824219 593.277344 C 137.148438 591.953125 138.535156 590.695312 139.980469 589.507812 C 141.429688 588.320312 142.929688 587.207031 144.488281 586.164062 C 146.042969 585.125 147.648438 584.164062 149.296875 583.28125 C 150.949219 582.398438 152.640625 581.597656 154.367188 580.882812 C 156.097656 580.164062 157.859375 579.535156 159.648438 578.992188 C 161.441406 578.449219 163.253906 577.992188 165.089844 577.628906 C 166.925781 577.261719 168.777344 576.988281 170.640625 576.804688 C 172.503906 576.621094 174.371094 576.53125 176.242188 576.53125 C 178.113281 576.53125 179.980469 576.621094 181.84375 576.804688 C 183.707031 576.988281 185.558594 577.261719 187.394531 577.628906 C 189.230469 577.992188 191.042969 578.449219 192.835938 578.992188 C 194.625 579.535156 196.386719 580.164062 198.117188 580.882812 C 199.847656 581.597656 201.535156 582.398438 203.1875 583.28125 C 204.839844 584.164062 206.441406 585.125 208 586.164062 C 209.554688 587.207031 211.058594 588.320312 212.503906 589.507812 C 213.953125 590.695312 215.335938 591.953125 216.660156 593.277344 C 217.984375 594.601562 219.242188 595.984375 220.429688 597.433594 C 221.617188 598.882812 222.730469 600.382812 223.769531 601.941406 C 224.808594 603.496094 225.769531 605.101562 226.652344 606.753906 C 227.535156 608.40625 228.335938 610.09375 229.050781 611.824219 C 229.769531 613.554688 230.398438 615.316406 230.941406 617.109375 C 231.484375 618.898438 231.9375 620.714844 232.304688 622.550781 C 232.667969 624.386719 232.945312 626.238281 233.128906 628.101562 C 233.3125 629.964844 233.402344 631.832031 233.402344 633.707031 C 233.402344 635.578125 233.3125 637.445312 233.128906 639.308594 C 232.945312 641.171875 232.667969 643.023438 232.304688 644.859375 C 231.9375 646.695312 231.484375 648.511719 230.941406 650.304688 C 230.398438 652.09375 229.769531 653.855469 229.050781 655.585938 C 228.335938 657.316406 227.535156 659.007812 226.652344 660.660156 C 225.769531 662.308594 224.808594 663.914062 223.769531 665.472656 C 222.730469 667.027344 221.617188 668.53125 220.429688 669.976562 C 219.238281 671.425781 217.984375 672.8125 216.660156 674.136719 C 215.335938 675.460938 213.953125 676.714844 212.503906 677.902344 C 211.058594 679.09375 209.554688 680.207031 208 681.246094 C 206.441406 682.285156 204.839844 683.25 203.1875 684.132812 C 201.535156 685.015625 199.847656 685.8125 198.117188 686.53125 C 196.386719 687.246094 194.625 687.875 192.835938 688.421875 C 191.042969 688.964844 189.230469 689.417969 187.394531 689.785156 C 185.558594 690.148438 183.707031 690.421875 181.84375 690.605469 C 179.980469 690.789062 178.113281 690.882812 176.242188 690.882812 Z M 176.242188 690.882812 " fill-opacity="1" fill-rule="nonzero"/></g></svg>