<svg xmlns="http://www.w3.org/2000/svg" xmlns:xlink="http://www.w3.org/1999/xlink" width="600" zoomAndPan="magnify" viewBox="0 0 450 449.999984" height="600" preserveAspectRatio="xMidYMid meet" version="1.0"><defs><clipPath id="13cab3a06c"><path d="M 244.496094 229.660156 L 401.246094 229.660156 L 401.246094 386.410156 L 244.496094 386.410156 Z M 244.496094 229.660156 " clip-rule="nonzero"/></clipPath><clipPath id="c8b61ab362"><path d="M 39.640625 75.722656 L 191.890625 75.722656 L 191.890625 227.972656 L 39.640625 227.972656 Z M 39.640625 75.722656 " clip-rule="nonzero"/></clipPath></defs><path stroke-linecap="butt" transform="matrix(0.75, 0, 0, 0.75, -237.751044, 149.834139)" fill="none" stroke-linejoin="miter" d="M 0.00139164 2.502399 L 1247.241072 2.502399 " stroke="#000000" stroke-width="5" stroke-opacity="1" stroke-miterlimit="4"/><path stroke-linecap="butt" transform="matrix(0.75, 0, 0, 0.75, -237.751044, 306.079956)" fill="none" stroke-linejoin="miter" d="M 0.00139164 2.497559 L 1247.241072 2.497559 " stroke="#000000" stroke-width="5" stroke-opacity="1" stroke-miterlimit="4"/><g clip-path="url(#13cab3a06c)"><path fill="#ebd373" d="M 322.789062 229.660156 C 279.621094 229.660156 244.496094 264.785156 244.496094 307.953125 C 244.496094 351.117188 279.621094 386.246094 322.789062 386.246094 C 365.953125 386.246094 401.082031 351.117188 401.082031 307.953125 C 401.082031 264.785156 365.953125 229.660156 322.789062 229.660156 Z M 322.789062 229.660156 " fill-opacity="1" fill-rule="nonzero"/></g><g clip-path="url(#c8b61ab362)"><path fill="#7ebd9f" d="M 115.625 75.722656 C 73.730469 75.722656 39.640625 109.8125 39.640625 151.707031 C 39.640625 193.597656 73.730469 227.691406 115.625 227.691406 C 157.519531 227.691406 191.609375 193.597656 191.609375 151.707031 C 191.609375 109.8125 157.519531 75.722656 115.625 75.722656 Z M 115.625 75.722656 " fill-opacity="1" fill-rule="nonzero"/></g></svg>