<svg xmlns="http://www.w3.org/2000/svg" xmlns:xlink="http://www.w3.org/1999/xlink" width="250" zoomAndPan="magnify" viewBox="0 0 187.5 187.499992" height="250" preserveAspectRatio="xMidYMid meet" version="1.0"><defs><clipPath id="5b9b0a1331"><path d="M 103 108 L 183 108 L 183 187 L 103 187 Z M 103 108 " clip-rule="nonzero"/></clipPath><clipPath id="6dbefc0675"><path d="M 110.722656 102.371094 L 187.824219 179.472656 L 174.972656 192.324219 L 97.871094 115.21875 Z M 110.722656 102.371094 " clip-rule="nonzero"/></clipPath><clipPath id="249e757152"><path d="M 110.722656 102.371094 L 187.824219 179.472656 L 174.972656 192.324219 L 97.871094 115.21875 Z M 110.722656 102.371094 " clip-rule="nonzero"/></clipPath><clipPath id="076dff2c6b"><rect x="0" width="187" y="0" height="187"/></clipPath></defs><g transform="matrix(1, 0, 0, 1, 0, 0)"><g clip-path="url(#076dff2c6b)"><g clip-path="url(#5b9b0a1331)"><g clip-path="url(#6dbefc0675)"><g clip-path="url(#249e757152)"><path fill="#ffbd59" d="M 119.140625 110.789062 C 118.722656 110.359375 118.269531 109.980469 117.78125 109.640625 C 117.289062 109.304688 116.769531 109.019531 116.222656 108.785156 C 115.675781 108.550781 115.109375 108.375 114.527344 108.253906 C 113.945312 108.132812 113.355469 108.070312 112.757812 108.066406 C 112.164062 108.0625 111.574219 108.117188 110.988281 108.230469 C 110.40625 108.339844 109.835938 108.511719 109.285156 108.738281 C 108.734375 108.964844 108.210938 109.242188 107.714844 109.570312 C 107.222656 109.902344 106.761719 110.277344 106.339844 110.695312 C 105.921875 111.117188 105.546875 111.578125 105.214844 112.070312 C 104.886719 112.566406 104.605469 113.089844 104.382812 113.640625 C 104.15625 114.191406 103.984375 114.761719 103.871094 115.34375 C 103.761719 115.929688 103.707031 116.519531 103.710938 117.113281 C 103.714844 117.710938 103.777344 118.300781 103.898438 118.882812 C 104.019531 119.464844 104.195312 120.03125 104.429688 120.578125 C 104.664062 121.125 104.949219 121.644531 105.285156 122.136719 C 105.625 122.625 106.003906 123.078125 106.433594 123.496094 L 166.789062 183.851562 C 167.207031 184.28125 167.660156 184.660156 168.148438 185 C 168.640625 185.335938 169.160156 185.621094 169.707031 185.855469 C 170.253906 186.089844 170.820312 186.265625 171.402344 186.386719 C 171.984375 186.507812 172.574219 186.570312 173.171875 186.574219 C 173.765625 186.578125 174.355469 186.523438 174.941406 186.410156 C 175.523438 186.300781 176.09375 186.128906 176.644531 185.902344 C 177.195312 185.675781 177.71875 185.398438 178.210938 185.070312 C 178.707031 184.738281 179.167969 184.363281 179.585938 183.945312 C 180.007812 183.523438 180.382812 183.0625 180.714844 182.570312 C 181.042969 182.074219 181.320312 181.550781 181.546875 181 C 181.773438 180.449219 181.941406 179.878906 182.054688 179.296875 C 182.167969 178.710938 182.222656 178.121094 182.21875 177.527344 C 182.214844 176.929688 182.152344 176.339844 182.03125 175.757812 C 181.910156 175.175781 181.734375 174.609375 181.5 174.0625 C 181.265625 173.515625 180.980469 172.996094 180.644531 172.503906 C 180.304688 172.015625 179.925781 171.5625 179.496094 171.144531 Z M 119.140625 110.789062 " fill-opacity="1" fill-rule="nonzero"/></g></g></g><path fill="#ffbd59" d="M 69.570312 139.140625 C 31.207031 139.140625 0 107.929688 0 69.570312 C 0 31.207031 31.207031 0 69.570312 0 C 107.929688 0 139.140625 31.207031 139.140625 69.570312 C 139.140625 107.929688 107.929688 139.140625 69.570312 139.140625 Z M 69.570312 29.691406 C 47.582031 29.691406 29.691406 47.582031 29.691406 69.570312 C 29.691406 91.558594 47.582031 109.449219 69.570312 109.449219 C 91.558594 109.449219 109.449219 91.558594 109.449219 69.570312 C 109.449219 47.582031 91.558594 29.691406 69.570312 29.691406 Z M 69.570312 29.691406 " fill-opacity="1" fill-rule="nonzero"/></g></g></svg>